<svg id="logo-engie-blue" xmlns="http://www.w3.org/2000/svg" viewBox="0 0 319.13 113.38"><title>logo-engie-solid</title><path d="M319.13,45.82C276.37,17.27,220.59,0,159.57,0S42.76,17.27,0,45.82C42.53,31.68,92.25,22.91,159.57,22.91S276.61,31.68,319.13,45.82Z" style="fill:#0af;fill-rule:evenodd"/><path d="M135.1,60.66c-3.14,0-4.75,2.54-5.16,5.65-.46,3.44-2.27,15.35-2.67,18.37-.24,1.82-.37,3.71-2.13,4.49s-3.9-.42-5.72-2L90.58,62.65a8.13,8.13,0,0,0-5.36-2c-4.08,0-8,2.53-8,8.72v38.35a4.62,4.62,0,0,0,4.63,4.9,4.88,4.88,0,0,0,5-4.55s3-18.27,3.33-20.31c.42-2.37.79-4.23,3.08-4.94,2.07-.64,4,.56,6.94,3.11s27.2,24.48,27.2,24.48a7.83,7.83,0,0,0,5.86,2.21c2.39,0,6.73-1,6.73-8.28V66.14C140,62.6,137.77,60.66,135.1,60.66Z" style="fill:#0af"/><path d="M309.11,101.53c-21.19,4.56-45.45-.31-45.45-15.31,0-11.33,10.51-15.94,18.79-16.61,8.69-.69,15.48,1.13,19,4.76,2.18,2.27,1.57,5.36-2.72,5.61-3.94.24-11.35.47-17.51.7-3.5.13-5.37,2-5.37,4.53,0,2,1.5,4.28,5.53,4.3,5.77,0,20.42.12,27.69.14,4.81,0,7.17-2.68,7.17-8.21,0-8.75-7.93-22-31.14-22-21,0-36.24,10.48-36.24,27.6,0,24.28,35.73,31.69,61.91,22.67,2.48-.85,4.73-2.64,4-5.41C314.13,101.81,312.12,100.88,309.11,101.53Z" style="fill:#0af"/><path d="M63.2,101.53c-21.2,4.56-45.45-.31-45.45-15.31,0-11.33,10.5-15.94,18.79-16.61,8.68-.69,15.47,1.13,19,4.76,2.18,2.27,1.57,5.36-2.71,5.61-3.95.24-11.36.47-17.52.7-3.5.13-5.37,2-5.37,4.53,0,2,1.5,4.28,5.53,4.3,5.77,0,20.43.12,27.7.14,4.8,0,7.17-2.68,7.17-8.21,0-8.75-7.94-22-31.15-22-21,0-36.24,10.48-36.24,27.6,0,24.28,35.73,31.69,61.92,22.67,2.48-.85,4.73-2.64,4-5.41C68.22,101.81,66.21,100.88,63.2,101.53Z" style="fill:#0af"/><path d="M227.37,78.18c.47,13.24,1.72,24.22,2.07,28.07.45,5,3,6.38,5.59,6.38s5.1-1.29,5.55-6.34C241,102.05,242.22,89,242.83,76a.77.77,0,0,0-1-.87l-13.8,2.23A.83.83,0,0,0,227.37,78.18Z" style="fill:#0af"/><path d="M235.07,59.41a7.63,7.63,0,0,0-8.1,8c0,.57.07,2.13.16,4.08a.85.85,0,0,0,1,.79l14.4-2.34a.83.83,0,0,0,.7-.79c0-.68,0-1.37.06-1.7A7.74,7.74,0,0,0,235.07,59.41Z" style="fill:#0af"/><path d="M213.91,80.52c-4.8,0-19.62.12-29.1.14-4.6,0-5.75,2.48-5.75,4.53,0,1.78,1.24,4.08,5.53,4.3,6.53.34,14.85.73,18.69.93,5.17.26,5.24,2.92,3.49,5.2-3.51,4.56-12.05,7.55-20.9,7.55-11.58,0-24.32-6.58-24.32-17,0-9.8,10.91-20.59,43.3-16,2.85.4,5.65-.11,6.35-2.75.75-2.8-1.08-4.6-4.76-5.57A78.15,78.15,0,0,0,186,59.41c-21.81,0-39.29,10.41-39.29,27.23,0,18,17.42,26.74,39.14,26.74,24.25,0,36.06-13.2,36.06-24.74C221.93,82.77,218.94,80.52,213.91,80.52Z" style="fill:#0af"/></svg>
