<svg width="363" height="118" viewBox="0 0 363 118" fill="none" xmlns="http://www.w3.org/2000/svg">
<g filter="url(#filter0_d)">
<rect x="4.7312" y="0.684509" width="353.782" height="109.064" rx="9" fill="#FF0000"/>
</g>
<path fill-rule="evenodd" clip-rule="evenodd" d="M38.3958 55.2164C38.3958 40.5577 50.2789 28.6754 64.9367 28.6754C79.5954 28.6754 91.4777 40.5577 91.4777 55.2164C91.4777 69.8743 79.5954 81.7574 64.9367 81.7574C50.2789 81.7574 38.3958 69.8743 38.3958 55.2164ZM61.1896 41.3958C61.1896 39.3264 62.8674 37.6479 64.9376 37.6479C67.0069 37.6479 68.6847 39.3264 68.6847 41.3958L65.8013 64.8323C65.8013 65.3092 65.4145 65.6969 64.9376 65.6969C64.459 65.6969 64.073 65.3092 64.073 64.8323L61.1896 41.3958V41.3958ZM64.9367 67.5065C66.3941 67.5065 67.5764 68.688 67.5764 70.1453C67.5764 71.6035 66.3941 72.7849 64.9367 72.7849C63.4794 72.7849 62.2979 71.6035 62.2979 70.1453C62.2979 68.688 63.4794 67.5065 64.9367 67.5065V67.5065Z" fill="white"/>
<path d="M136.954 44.3883V58.4362C136.954 60.7701 136.222 62.6158 134.757 63.9733C133.302 65.3307 131.31 66.0094 128.78 66.0094C126.29 66.0094 124.312 65.3502 122.848 64.0319C121.383 62.7135 120.636 60.902 120.606 58.5973V44.3883H125.001V58.4655C125.001 59.8619 125.333 60.8824 125.997 61.527C126.671 62.1617 127.599 62.4791 128.78 62.4791C131.251 62.4791 132.506 61.1803 132.545 58.5826V44.3883H136.954ZM148.453 57.9088H144.952V65.7164H140.558V44.3883H148.482C151.002 44.3883 152.945 44.9498 154.312 46.0729C155.68 47.1959 156.363 48.7828 156.363 50.8336C156.363 52.2887 156.046 53.5045 155.411 54.4811C154.786 55.4479 153.834 56.2194 152.555 56.7955L157.169 65.5114V65.7164H152.452L148.453 57.9088ZM144.952 54.3492H148.497C149.601 54.3492 150.455 54.0709 151.061 53.5143C151.666 52.9479 151.969 52.1715 151.969 51.1852C151.969 50.1793 151.681 49.3883 151.104 48.8121C150.538 48.236 149.664 47.9479 148.482 47.9479H144.952V54.3492ZM176.593 63.0211C175.802 63.9684 174.684 64.7057 173.238 65.233C171.793 65.7506 170.191 66.0094 168.434 66.0094C166.588 66.0094 164.967 65.609 163.57 64.8082C162.184 63.9977 161.109 62.8258 160.348 61.2926C159.596 59.7594 159.21 57.9576 159.19 55.8873V54.4371C159.19 52.3082 159.547 50.4674 160.26 48.9147C160.982 47.3522 162.018 46.1608 163.365 45.3405C164.723 44.5104 166.31 44.0953 168.126 44.0953C170.655 44.0953 172.633 44.7008 174.059 45.9117C175.484 47.1129 176.329 48.8658 176.593 51.1705H172.315C172.12 49.9498 171.686 49.0563 171.012 48.4899C170.348 47.9235 169.43 47.6403 168.258 47.6403C166.764 47.6403 165.626 48.2018 164.845 49.3248C164.063 50.4479 163.668 52.1178 163.658 54.3346V55.6969C163.658 57.9332 164.083 59.6227 164.933 60.7653C165.782 61.9078 167.027 62.4791 168.668 62.4791C170.318 62.4791 171.495 62.1276 172.198 61.4244V57.7477H168.199V54.5104H176.593V63.0211ZM192.999 56.4733H184.562V62.1862H194.464V65.7164H180.167V44.3883H194.435V47.9479H184.562V53.0309H192.999V56.4733ZM214.386 65.7164H209.991L201.437 51.6832V65.7164H197.042V44.3883H201.437L210.006 58.4508V44.3883H214.386V65.7164ZM233.839 47.9479H227.306V65.7164H222.911V47.9479H216.466V44.3883H233.839V47.9479Z" fill="white"/>
<defs>
<filter id="filter0_d" x="0.731201" y="0.684509" width="361.782" height="117.064" filterUnits="userSpaceOnUse" color-interpolation-filters="sRGB">
<feFlood flood-opacity="0" result="BackgroundImageFix"/>
<feColorMatrix in="SourceAlpha" type="matrix" values="0 0 0 0 0 0 0 0 0 0 0 0 0 0 0 0 0 0 127 0"/>
<feOffset dy="4"/>
<feGaussianBlur stdDeviation="2"/>
<feColorMatrix type="matrix" values="0 0 0 0 0 0 0 0 0 0 0 0 0 0 0 0 0 0 0.25 0"/>
<feBlend mode="normal" in2="BackgroundImageFix" result="effect1_dropShadow"/>
<feBlend mode="normal" in="SourceGraphic" in2="effect1_dropShadow" result="shape"/>
</filter>
</defs>
</svg>
