<svg id="logo-engie-small-blue" xmlns="http://www.w3.org/2000/svg" viewBox="0 0 49.62 50.19"><title>logo-engie-small</title><path d="M49.62,7.12A44.91,44.91,0,0,0,24.81,0,44.91,44.91,0,0,0,0,7.12C6.61,4.93,14.34,3.56,24.81,3.56S43,4.93,49.62,7.12" style="fill:#0af;fill-rule:evenodd"/><path d="M13.14,32.48c0-7.39,6.47-10.4,11.57-10.83,5.34-.46,9.52.74,11.68,3.1,1.34,1.48,1,3.5-1.67,3.66-2.43.15-7,.3-10.79.46-2.15.08-3.3,1.31-3.3,2.95,0,1.3.92,2.79,3.4,2.8,3.55,0,12.58.08,17.06.09,2.95,0,4.41-1.74,4.41-5.34C45.5,23.66,40.61,15,26.32,15,13.37,15,4,21.83,4,33,4,48.83,26,53.66,42.13,47.77c1.53-.55,2.92-1.72,2.47-3.52-.39-1.6-1.62-2.21-3.47-1.79C28.07,45.44,13.14,42.26,13.14,32.48Z" style="fill:#0af;fill-rule:evenodd"/></svg>
